#!OML:ASF F:\VICON\USERDATA\INSTALL\rory3\rory3.ASF
:FULLY-SPECIFIED
:DEGREES
1212
root -2.66211 18.4475 0.825961 9.01831 -4.25018 2.50967
lowerback 15.3501 0.819639 -3.00491
upperback 2.06413 0.671515 1.31895
thorax -6.46188 0.413626 2.96869
lowerneck -23.4521 -5.65492 -10.6769
upperneck 16.9368 -6.31214 9.57005
head 9.89247 -2.53394 4.16004
rclavicle -3.57812e-015 -2.38542e-014
rhumerus -37.4308 18.2989 -84.5339
rradius 103.233
rwrist 6.21648
rhand -20.9391 26.5185
rfingers 7.12502
rthumb 5.43317 -3.39182
lclavicle -3.57812e-015 -2.38542e-014
lhumerus -22.47 -5.88424 84.479
lradius 118.707
lwrist -1.6834
lhand -19.8819 10.3288
lfingers 7.12502
lthumb 6.45381 40.2105
rfemur -30.3658 -9.90816 13.5385
rtibia 48.4916
rfoot -4.89988 3.56696
rtoes -15.8236
lfemur -29.567 -7.03418 -13.583
ltibia 38.4773
lfoot 5.45808 -11.7355
ltoes -26.6418
1213
root -2.60747 18.4437 0.793935 8.77391 -5.1676 2.68849
lowerback 15.6769 0.865824 -3.52114
upperback 2.07576 0.629271 1.24259
thorax -6.63058 0.407385 3.19007
lowerneck -23.5175 -5.62352 -10.9075
upperneck 17.1499 -6.31551 10.0667
head 10.0085 -2.49236 4.3828
rclavicle -9.54166e-015 -3.18055e-015
rhumerus -37.8251 17.7428 -83.6487
rradius 103.299
rwrist 5.50776
rhand -20.4105 26.3503
rfingers 7.12502
rthumb 5.94348 -3.54637
lclavicle -9.54166e-015 -3.18055e-015
lhumerus -21.6617 -6.3264 84.1781
lradius 118.883
lwrist -1.83157
lhand -20.2063 10.1231
lfingers 7.12502
lthumb 6.14061 40.0141
rfemur -31.5942 -8.93724 13.703
rtibia 46.8476
rfoot -4.4032 5.23297
rtoes -13.9942
lfemur -28.4245 -6.52499 -13.757
ltibia 40.9024
lfoot 4.06586 -12.7625
ltoes -27.4953
1214
root -2.5532 18.4376 0.767571 8.48828 -6.05577 3.06818
lowerback 16.0113 0.899067 -4.21243
upperback 2.03103 0.530084 1.10599
thorax -6.85917 0.380568 3.4596
lowerneck -23.4258 -5.48336 -10.8119
upperneck 17.2625 -6.217 10.2522
head 10.0253 -2.42178 4.45423
rclavicle -8.94531e-015 -1.07344e-014
rhumerus -38.0958 17.3331 -82.8775
rradius 102.94
rwrist 4.38182
rhand -20.0539 26.3504
rfingers 7.12502
rthumb 6.28778 -3.53626
lclavicle -8.94531e-015 -1.07344e-014
lhumerus -21.1641 -6.73384 83.8316
lradius 119.253
lwrist -1.67807
lhand -20.1665 9.90533
lfingers 7.12502
lthumb 6.17908 39.7952
rfemur -32.6098 -8.21767 13.6289
rtibia 45.1219
rfoot -3.57851 6.31262
rtoes -11.188
lfemur -27.1334 -5.96843 -14.1497
ltibia 43.1484
lfoot 2.76121 -13.1868
ltoes -28.036
1215
root -2.5019 18.4273 0.752409 8.29031 -7.0695 3.50034
lowerback 15.8031 0.940915 -4.9488
upperback 2.0988 0.454378 0.914793
thorax -6.66851 0.353928 3.68997
lowerneck -23.3932 -5.24485 -10.4756
upperneck 17.3262 -6.01181 10.257
head 10.0073 -2.30464 4.43553
rclavicle 4.17448e-015 3.57812e-015
rhumerus -38.1128 16.853 -82.1615
rradius 102.391
rwrist 3.97818
rhand -19.8239 26.334
rfingers 7.12502
rthumb 6.50979 -3.54593
lclavicle 4.17448e-015 3.57812e-015
lhumerus -20.5191 -7.00513 83.4804
lradius 119.738
lwrist -1.14379
lhand -19.9974 9.89656
lfingers 7.12502
lthumb 6.34229 39.7816
rfemur -33.6033 -7.61649 13.5193
rtibia 43.3234
rfoot -2.4079 6.48594
rtoes -8.8436
lfemur -25.7422 -5.114 -14.6108
ltibia 45.2172
lfoot 1.53551 -13.5242
ltoes -28.1093
1216
root -2.45021 18.4042 0.737697 8.14906 -8.11276 3.79178
lowerback 15.5797 0.987089 -5.53744
upperback 2.02483 0.418658 0.820175
thorax -6.62465 0.350389 3.93112
lowerneck -23.0358 -5.02702 -10.4225
upperneck 17.3285 -5.78016 10.3244
head 9.91839 -2.19668 4.49026
rclavicle -9.74045e-015 1.63003e-014
rhumerus -38.4563 16.3991 -81.413
rradius 101.954
rwrist 4.19578
rhand -19.9563 26.328
rfingers 7.12502
rthumb 6.38205 -3.55582
lclavicle -9.74045e-015 1.63003e-014
lhumerus -19.9227 -7.27565 83.2412
lradius 120.294
lwrist -0.230468
lhand -19.9872 10.0467
lfingers 7.12502
lthumb 6.35215 39.9315
rfemur -34.5972 -6.98105 13.5589
rtibia 41.4885
rfoot -1.07368 5.31452
rtoes -6.54683
lfemur -24.3043 -4.06392 -14.8956
ltibia 47.0908
lfoot 0.45264 -13.8492
ltoes -28.7005
1217
root -2.39573 18.3719 0.723205 8.02457 -9.05706 3.97497
lowerback 15.3697 0.994148 -5.89649
upperback 1.89442 0.373108 0.766006
thorax -6.64595 0.340281 4.08681
lowerneck -22.4867 -4.83658 -10.5026
upperneck 17.2651 -5.5369 10.3136
head 9.77161 -2.10655 4.53839
rclavicle 2.28602e-014 -4.77083e-015
rhumerus -38.8615 15.9253 -80.6126
rradius 101.571
rwrist 4.50334
rhand -20.1788 26.3828
rfingers 7.12502
rthumb 6.16718 -3.50739
lclavicle 2.28602e-014 -4.77083e-015
lhumerus -19.6516 -7.6132 83.0589
lradius 121.012
lwrist 0.468776
lhand -20.0323 10.325
lfingers 7.12502
lthumb 6.30866 40.211
rfemur -35.4667 -6.37088 13.674
rtibia 39.6699
rfoot 0.28955 3.16703
rtoes -4.24297
lfemur -22.8192 -3.09329 -14.9979
ltibia 48.7312
lfoot -0.407151 -13.8861
ltoes -29.0374
1218
root -2.33827 18.3352 0.719274 7.86029 -9.76864 4.08691
lowerback 15.0796 0.913891 -6.03293
upperback 1.8744 0.258966 0.713349
thorax -6.49447 0.283127 4.13058
lowerneck -22.3346 -4.69352 -10.4213
upperneck 17.3634 -5.34549 10.1311
head 9.7479 -2.03718 4.49104
rclavicle -4.37326e-015 5.96354e-015
rhumerus -39.0453 15.2885 -79.7939
rradius 101.168
rwrist 4.92136
rhand -20.2407 26.4933
rfingers 7.12502
rthumb 6.10744 -3.39869
lclavicle -4.37326e-015 5.96354e-015
lhumerus -19.4864 -7.84719 82.9205
lradius 121.796
lwrist 0.827977
lhand -19.9216 10.4092
lfingers 7.12502
lthumb 6.41552 40.292
rfemur -36.0544 -5.95863 13.8118
rtibia 37.9322
rfoot 1.61677 0.860037
rtoes -2.12128
lfemur -21.1947 -2.44214 -14.9602
ltibia 50.0666
lfoot -0.987768 -13.4781
ltoes -28.3937
1219
root -2.2831 18.291 0.723387 7.60947 -10.2639 4.23225
lowerback 14.7527 0.761851 -6.12033
upperback 1.92058 0.0621957 0.642298
thorax -6.24131 0.179106 4.14185
lowerneck -22.3831 -4.53968 -10.1921
upperneck 17.6159 -5.15561 9.84928
head 9.8078 -1.96413 4.38571
rclavicle 8.84592e-015 -2.0276e-014
rhumerus -39.1438 14.5745 -79.0691
rradius 100.765
rwrist 5.46475
rhand -20.2885 26.6044
rfingers 7.12502
rthumb 6.06132 -3.28892
lclavicle 8.84592e-015 -2.0276e-014
lhumerus -19.0591 -7.94653 82.6682
lradius 122.383
lwrist 1.03321
lhand -19.5865 10.1975
lfingers 7.12502
lthumb 6.73899 40.0702
rfemur -36.415 -5.649 13.8225
rtibia 36.407
rfoot 2.74267 -1.56615
rtoes 0.788471
lfemur -19.4002 -2.00252 -14.9036
ltibia 51.0523
lfoot -1.40195 -12.8216
ltoes -27.6776
1220
root -2.23378 18.2338 0.733146 7.22778 -10.6729 4.5023
lowerback 14.3622 0.589374 -6.3552
upperback 2.0006 -0.175699 0.606573
thorax -5.91135 0.0547958 4.2799
lowerneck -22.2401 -4.36966 -10.2028
upperneck 17.8119 -4.89659 9.64913
head 9.81588 -1.87182 4.3598
rclavicle -5.46658e-015 1.51076e-014
rhumerus -39.2501 13.9096 -78.353
rradius 100.387
rwrist 6.03077
rhand -20.4379 26.5711
rfingers 7.12502
rthumb 5.9171 -3.32628
lclavicle -5.46658e-015 1.51076e-014
lhumerus -18.4183 -7.92264 82.3425
lradius 122.78
lwrist 0.903751
lhand -19.3117 10.1186
lfingers 7.12502
lthumb 7.00427 39.9827
rfemur -36.6794 -5.32506 13.6281
rtibia 35.3132
rfoot 3.53078 -4.33781
rtoes 3.90477
lfemur -17.3806 -1.61364 -14.9168
ltibia 51.6349
lfoot -1.84338 -12.3473
ltoes -27.444
1221
root -2.18671 18.1486 0.74969 6.74634 -10.9597 4.77578
lowerback 13.9276 0.386237 -6.56209
upperback 2.09374 -0.443349 0.5765
thorax -5.53797 -0.0877256 4.40954
lowerneck -22.0151 -4.21254 -10.2295
upperneck 17.9836 -4.65173 9.42992
head 9.80275 -1.79151 4.32659
rclavicle 2.11706e-014 -1.82882e-014
rhumerus -39.4305 13.1544 -77.7138
rradius 100.135
rwrist 6.36354
rhand -20.5667 26.4126
rfingers 7.12502
rthumb 5.79272 -3.48821
lclavicle 2.11706e-014 -1.82882e-014
lhumerus -17.9256 -7.87372 82.0545
lradius 123.103
lwrist 0.267411
lhand -19.2583 9.91809
lfingers 7.12502
lthumb 7.05582 39.7805
rfemur -36.8728 -5.31074 13.5103
rtibia 34.9203
rfoot 3.95586 -6.77794
rtoes 8.57191
lfemur -15.1486 -1.32645 -14.8635
ltibia 51.787
lfoot -2.05299 -12.2049
ltoes -27.4948
1222
root -2.14013 18.0436 0.764107 6.26875 -11.139 5.07007
lowerback 13.5479 0.115318 -6.8109
upperback 2.107 -0.809333 0.572322
thorax -5.26489 -0.272899 4.6055
lowerneck -21.8824 -4.01549 -10.3444
upperneck 18.3955 -4.34042 9.26291
head 9.88776 -1.67978 4.34277
rclavicle 9.44227e-015 -1.98785e-015
rhumerus -39.6548 12.4506 -77.1501
rradius 99.9779
rwrist 6.3319
rhand -20.4237 26.3682
rfingers 7.12502
rthumb 5.93076 -3.52881
lclavicle 9.44227e-015 -1.98785e-015
lhumerus -17.6161 -7.61303 81.8625
lradius 123.384
lwrist -0.71243
lhand -19.3703 9.83061
lfingers 7.12502
lthumb 6.94775 39.6966
rfemur -37.1737 -5.81185 13.5514
rtibia 35.4348
rfoot 4.42179 -7.38967
rtoes 14.0676
lfemur -12.852 -1.16223 -14.7826
ltibia 51.4835
lfoot -1.6502 -12.0511
ltoes -26.5691
